<?xml version="1.0" encoding="utf-8"?>
<!-- Generator: Adobe Illustrator 21.0.0, SVG Export Plug-In . SVG Version: 6.00 Build 0)  -->
<svg version="1.1" id="icons" xmlns="http://www.w3.org/2000/svg" xmlns:xlink="http://www.w3.org/1999/xlink" x="0px" y="0px"
	 viewBox="0 0 54.1 50.9" style="enable-background:new 0 0 54.1 50.9;" xml:space="preserve">
<style type="text/css">
	.st0{fill:none;stroke:#a6bdd9;stroke-miterlimit:10;}
	.st1{fill:none;stroke:#333a3b;stroke-miterlimit:10;}
	.st2{fill:#a6bdd9;}
	.st3{fill:none;stroke:#333a3b;stroke-width:2;stroke-miterlimit:10;}
	.st4{fill:#333a3b;}
</style>
<g>
	
		<rect x="1.6" y="-1.6" transform="matrix(-1.836970e-16 1 -1 -1.836970e-16 52.4776 -1.5943)" class="st2" width="50.9" height="54.1"/>
	<g>
		<path class="st3" d="M37.2,19.6c0,5.8,0,11.6,0,17.4c-0.1,0.3-0.1,0.5-0.2,0.8c-0.4,0.6-0.9,0.9-1.5,1c-5.6,0-11.3,0-16.9,0
			c-0.6-0.1-1.1-0.4-1.4-0.8c-0.2-0.3-0.2-0.6-0.3-0.9c0-7.7,0-15.5,0-23.2c0.1-0.3,0.1-0.6,0.3-0.8c0.4-0.5,0.9-0.8,1.5-0.9
			c3.7,0,7.4,0,11.1,0c0.1,0.1,0.1,0.3,0.1,0.4c0,1.6,0,3.2,0,4.9c0,0.3,0.1,0.7,0.2,1c0.2,0.7,0.8,1.1,1.5,1.1c1.7,0,3.5,0,5.2,0
			C36.9,19.5,37.1,19.5,37.2,19.6z"/>
		<path class="st3" d="M37.2,19.6c-1.8,0-3.6,0-5.4,0c-1.4,0-2.1-0.7-2.1-2.1c0-1.7,0-3.4,0-5.2c0-0.1,0-0.2,0-0.3
			c0.3,0,0.6,0,0.9,0c0.2,0.1,0.3,0.2,0.4,0.3c2,2,3.9,3.9,5.9,5.9c0.1,0.1,0.2,0.3,0.3,0.4C37.2,19,37.2,19.3,37.2,19.6z"/>
		<path class="st4" d="M30.5,29.5c0-0.5,0-0.9,0-1.4c0-0.2,0-0.3-0.2-0.2c-0.2,0-0.3-0.1-0.3-0.3c0-0.1,0-0.1,0-0.2
			c0-0.2,0-0.3,0.3-0.3c0.2,0,0.2-0.1,0.2-0.2c0,0,0-0.1,0-0.1c0-1,0.4-1.5,1.6-1.5c0.6,0,0.5,0,0.4,0.6c0,0.2-0.1,0.4-0.4,0.3
			c-0.1,0-0.2,0-0.3,0c-0.3,0-0.4,0.1-0.4,0.4c0,0,0,0.1,0,0.1c0,0.5,0,0.5,0.4,0.5c0.1,0,0.3-0.1,0.4,0.1c0.1,0.2,0,0.4,0,0.7
			c0,0.1-0.1,0-0.2,0c-0.2,0-0.5-0.1-0.6,0c-0.1,0.1,0,0.4,0,0.6c0,0.8,0,1.6,0,2.3c0,0.2,0,0.2-0.2,0.2c-0.2,0-0.4,0-0.6,0
			c-0.1,0-0.2,0-0.2-0.2C30.5,30.4,30.5,30,30.5,29.5z"/>
		<path class="st4" d="M29.1,25.5c-0.2,0-0.3,0-0.5,0c-0.2,0-0.3,0-0.3,0.3c0,0.5,0,1.1,0,1.7c-0.1,0-0.1-0.1-0.1-0.1
			c-1.1-0.7-2.2-0.2-2.5,1c-0.1,0.5-0.1,1.1,0,1.6c0.2,0.9,0.9,1.4,1.8,1.2c0.3-0.1,0.6-0.2,0.9-0.5c-0.1,0.4,0.1,0.4,0.3,0.4
			c0.1,0,0.2,0,0.4,0c0.2,0,0.2-0.1,0.2-0.2c0-1.7,0-3.4,0-5.1C29.3,25.5,29.3,25.4,29.1,25.5z M28.1,30.1c-0.1,0-0.2,0.1-0.3,0.1
			c-0.6,0.2-1,0-1.2-0.6c-0.1-0.4-0.1-0.8,0-1.1c0.2-0.7,1.1-0.9,1.6-0.3c0.1,0.1,0.1,0.1,0.1,0.2c0,0.2,0,0.5,0,0.7
			c0,0.2,0,0.4,0,0.6C28.4,29.9,28.3,30,28.1,30.1z"/>
		<path class="st4" d="M24.8,28.1c-0.2-0.8-0.9-1.2-1.7-1c-0.4,0.1-0.6,0.2-1,0.5c0.1-0.4-0.1-0.4-0.3-0.4c-0.1,0-0.2,0-0.3,0
			c-0.2,0-0.2,0-0.2,0.2c0,1.7,0,3.4,0,5c0,0.1,0,0.2,0.2,0.2c0.2,0,0.4,0,0.6,0c0.2,0,0.2,0,0.2-0.2c0-0.5,0-1,0-1.5
			c0.1,0.1,0.1,0.1,0.2,0.1c0.9,0.6,2,0.2,2.4-0.8C25,29.4,25,28.7,24.8,28.1z M23.8,29.8c-0.3,0.6-1.1,0.7-1.5,0.2
			c-0.1-0.1,0-0.1,0-0.2c0-0.5,0-1,0-1.4c0-0.1,0-0.2,0.1-0.2c0.3-0.2,0.6-0.4,1-0.3c0.2,0,0.4,0.2,0.5,0.4c0.1,0.2,0.1,0.5,0.1,0.8
			C23.9,29.3,23.9,29.6,23.8,29.8z"/>
	</g>
</g>
</svg>
