<?xml version="1.0" encoding="utf-8"?>
<!-- Generator: Adobe Illustrator 19.0.0, SVG Export Plug-In . SVG Version: 6.00 Build 0)  -->
<svg version="1.1" id="Layer_1" xmlns="http://www.w3.org/2000/svg" xmlns:xlink="http://www.w3.org/1999/xlink" x="0px" y="0px"
	 viewBox="0 0 674 206.5" style="enable-background:new 0 0 674 206.5;" xml:space="preserve">
<style type="text/css">
	.st0{fill:#345617;}
	.st1{fill:#444444;}
	.st2{fill:#41C484;}
	.st3{fill:#FFFFFF;}
</style>
<rect x="0" y="-950" class="st0" width="102.6" height="206.5"/>
<text transform="matrix(0.9945 0 0 1 217.6802 -798.8496)" style="font-family:'Questrial-Regular'; font-size:13.5824px;">        </text>
<text transform="matrix(0.9945 0 0 1 135 -889.3162)" style="font-family:'MicrosoftSansSerif'; font-size:57.5824px;">S</text>
<text transform="matrix(0.9998 0 0 1 173.1953 -889.3162)" style="font-family:'CenturyGothic'; font-size:57.7314px;">TANDARDISATION</text>
<text transform="matrix(0.9998 0 0 1 135 -820.0384)" style="font-family:'CenturyGothic'; font-size:57.7314px;">OF LABOUR ROOMS</text>
<g>
	<path class="st1" d="M145.1,35.3c-0.8,0.7-1.4,1.5-1.6,2.4c-0.3,0.9-0.4,1.8-0.4,2.8s0.4,1.9,1.3,2.7c0.8,0.8,1.9,1.5,3.3,2.1
		c1.4,0.6,2.9,1.1,4.7,1.5c1.8,0.4,3.6,0.9,5.4,1.3c1.8,0.5,3.6,1,5.4,1.6c1.8,0.6,3.3,1.3,4.7,2.2c3.1,1.9,4.6,4.6,4.6,8
		c0,4-1.5,7.1-4.5,9.2c-3,2.1-7.1,3.2-12.4,3.2c-6,0-10.5-1.3-13.7-3.8c-2.8-2.2-4.4-5.4-4.8-9.6h5c0.2,2.9,1.6,5.2,4.3,6.7
		c2.3,1.3,5.4,2,9.2,2c8,0,12-2.5,12-7.6c0-1.7-0.7-3.1-2.2-4.1c-1.4-1-3.2-1.8-5.4-2.5c-2.2-0.6-4.5-1.3-7-1.8s-4.9-1.3-7-2.2
		c-2.2-0.9-4-2.1-5.4-3.5c-1.4-1.4-2.2-3.4-2.2-5.9c0-3.5,1.3-6.4,4-8.6c2.7-2.2,6.7-3.3,12.1-3.3c5.4,0,9.6,1.3,12.6,3.8
		c2.7,2.2,4.1,5,4.3,8.5h-5c-0.4-3.5-2.7-5.9-6.8-7.1c-1.5-0.4-3.3-0.6-5.4-0.6c-2.2,0-4,0.2-5.5,0.7
		C147.1,34,145.9,34.6,145.1,35.3z"/>
	<path class="st1" d="M184.6,71.6V43.4H178v-4.3h6.6V27.5h4.9v11.6h7.5v4.3h-7.5v28.2H184.6z"/>
	<path class="st1" d="M229.3,66.4c-2.6,3.8-6.5,5.7-11.6,5.7c-4.7,0-8.5-1.6-11.4-4.9c-2.9-3.2-4.3-7.2-4.3-11.9
		c0-4.7,1.4-8.7,4.3-11.9c2.9-3.3,6.9-4.9,11.8-4.9c4.9,0,8.7,1.9,11.3,5.8v-5.3h4.9v32.5h-4.9V66.4z M218.3,67.7
		c3.5,0,6.3-1.2,8.3-3.6c1.9-2.3,2.9-5.2,2.9-8.7c0-3.5-1-6.4-2.9-8.7c-2-2.4-4.8-3.6-8.3-3.6c-3.5,0-6.3,1.2-8.5,3.6
		c-2,2.3-3.1,5.2-3.1,8.7c0,3.5,1,6.4,3.1,8.7C212,66.5,214.8,67.7,218.3,67.7z"/>
	<path class="st1" d="M249.8,39.1v5.1c1.2-1.6,2.6-2.9,4.3-4s3.6-1.6,5.8-1.6c2.2,0,4,0.3,5.6,0.9c1.6,0.6,2.9,1.5,4.1,2.7
		c2.7,2.6,4,6.1,4,10.5v18.9h-4.9V52.8c0-3-0.8-5.4-2.5-7.2c-1.7-1.8-3.9-2.7-6.6-2.7c-2.7,0-5,0.9-7,2.7c-1.9,1.9-2.9,4.2-2.9,7.2
		v18.7h-4.9V39.1H249.8z"/>
	<path class="st1" d="M309.3,66.4c-2.6,3.8-6.5,5.7-11.6,5.7c-4.7,0-8.5-1.6-11.4-4.9c-2.9-3.2-4.3-7.2-4.3-11.9
		c0-4.7,1.4-8.7,4.3-11.9c2.9-3.3,6.9-4.9,11.8-4.9c4.9,0,8.7,1.9,11.3,5.8V26.1h4.9v45.5h-4.9V66.4z M298.3,67.7
		c3.5,0,6.3-1.2,8.3-3.6c1.9-2.3,2.9-5.2,2.9-8.7c0-3.5-1-6.4-2.9-8.7c-2-2.4-4.8-3.6-8.3-3.6c-3.5,0-6.3,1.2-8.5,3.6
		c-2,2.3-3.1,5.2-3.1,8.7c0,3.5,1,6.4,3.1,8.7C292,66.5,294.9,67.7,298.3,67.7z"/>
	<path class="st1" d="M350.3,66.4c-2.6,3.8-6.5,5.7-11.6,5.7c-4.7,0-8.5-1.6-11.4-4.9c-2.9-3.2-4.3-7.2-4.3-11.9
		c0-4.7,1.4-8.7,4.3-11.9c2.9-3.3,6.9-4.9,11.8-4.9c4.9,0,8.7,1.9,11.3,5.8v-5.3h4.9v32.5h-4.9V66.4z M339.3,67.7
		c3.5,0,6.3-1.2,8.3-3.6c1.9-2.3,2.9-5.2,2.9-8.7c0-3.5-1-6.4-2.9-8.7c-2-2.4-4.8-3.6-8.3-3.6c-3.5,0-6.3,1.2-8.5,3.6
		c-2,2.3-3.1,5.2-3.1,8.7c0,3.5,1,6.4,3.1,8.7C333,66.5,335.8,67.7,339.3,67.7z"/>
	<path class="st1" d="M383,38.6v4.9h-0.6c-3.5,0-6.4,1.4-8.6,4.2c-2.1,2.7-3.1,5.9-3.1,9.6v14.3h-4.9V39.1h4.9v8
		c1-3.4,3.3-5.9,6.8-7.5c1.4-0.7,3.2-1,5.2-1H383z"/>
	<path class="st1" d="M415.1,66.4c-2.6,3.8-6.5,5.7-11.6,5.7c-4.7,0-8.5-1.6-11.4-4.9c-2.9-3.2-4.3-7.2-4.3-11.9
		c0-4.7,1.4-8.7,4.3-11.9c2.9-3.3,6.9-4.9,11.8-4.9c4.9,0,8.7,1.9,11.3,5.8V26.1h4.9v45.5h-4.9V66.4z M404.1,67.7
		c3.5,0,6.3-1.2,8.3-3.6c2-2.3,2.9-5.2,2.9-8.7c0-3.5-1-6.4-2.9-8.7c-2-2.4-4.8-3.6-8.3-3.6c-3.5,0-6.3,1.2-8.5,3.6
		c-2,2.3-3.1,5.2-3.1,8.7c0,3.5,1,6.4,3.1,8.7C397.8,66.5,400.6,67.7,404.1,67.7z"/>
	<path class="st1" d="M435.7,27.3v6.4h-5.3v-6.4H435.7z M430.7,39.1h4.9v32.5h-4.9V39.1z"/>
	<path class="st1" d="M465.4,47.8c-0.4-3.4-3.2-5.1-8.2-5.1c-5,0-7.5,1.6-7.5,4.7c0,1.3,0.5,2.3,1.6,3c1.1,0.7,2.4,1.2,4,1.7
		c1.6,0.4,3.3,0.8,5.2,1.2c1.9,0.4,3.6,0.9,5.2,1.6c1.6,0.7,2.9,1.6,4,2.8s1.6,2.8,1.6,4.8c0,3.2-1.2,5.6-3.6,7.2
		c-2.4,1.7-5.6,2.5-9.7,2.5c-4.3,0-7.8-1.1-10.3-3.3c-2.3-1.9-3.6-4.4-3.8-7.5h5.1c0.3,3,2,5,5.1,6c1.1,0.3,2.2,0.5,3.3,0.5
		c1.1,0,2.1-0.1,3.1-0.2c1-0.1,1.9-0.4,2.8-0.7c2.1-0.8,3.1-2.2,3.1-4.2c0-1.3-0.5-2.4-1.6-3.1s-2.4-1.3-4-1.8
		c-1.6-0.5-3.3-0.9-5.2-1.2s-3.6-0.9-5.2-1.5c-1.6-0.6-2.9-1.5-4-2.7c-1.1-1.1-1.6-2.7-1.6-4.7c0-2.9,1.1-5.2,3.2-6.9
		c2.1-1.6,5.3-2.4,9.5-2.4c4,0,7.1,1,9.4,2.9c1.9,1.6,3,3.7,3.3,6.4H465.4z"/>
	<path class="st1" d="M505.2,66.4c-2.6,3.8-6.5,5.7-11.6,5.7c-4.7,0-8.5-1.6-11.4-4.9c-2.9-3.2-4.3-7.2-4.3-11.9
		c0-4.7,1.4-8.7,4.3-11.9c2.9-3.3,6.9-4.9,11.8-4.9c4.9,0,8.7,1.9,11.3,5.8v-5.3h4.9v32.5h-4.9V66.4z M494.2,67.7
		c3.5,0,6.3-1.2,8.3-3.6c2-2.3,2.9-5.2,2.9-8.7c0-3.5-1-6.4-2.9-8.7c-2-2.4-4.8-3.6-8.3-3.6c-3.5,0-6.3,1.2-8.5,3.6
		c-2,2.3-3.1,5.2-3.1,8.7c0,3.5,1,6.4,3.1,8.7C487.9,66.5,490.8,67.7,494.2,67.7z"/>
	<path class="st1" d="M524.3,71.6V43.4h-6.6v-4.3h6.6V27.5h4.9v11.6h7.5v4.3h-7.5v28.2H524.3z"/>
	<path class="st1" d="M549.3,27.3v6.4h-5.3v-6.4H549.3z M544.3,39.1h4.9v32.5h-4.9V39.1z"/>
	<path class="st1" d="M574,38.6c4.9,0,8.8,1.6,11.8,4.9c2.9,3.1,4.3,7.1,4.3,11.9c0,4.8-1.4,8.8-4.3,11.9c-3,3.3-7,4.9-11.8,4.9
		c-4.9,0-8.8-1.6-11.8-4.9c-2.9-3.1-4.3-7.1-4.3-11.9c0-4.8,1.4-8.8,4.3-11.9C565.2,40.2,569.1,38.6,574,38.6z M574,67.7
		c3.5,0,6.3-1.2,8.3-3.6c2-2.3,2.9-5.2,2.9-8.7c0-3.5-1-6.4-2.9-8.7c-2-2.4-4.8-3.6-8.3-3.6c-3.5,0-6.3,1.2-8.3,3.6
		c-2,2.3-2.9,5.2-2.9,8.7c0,3.5,1,6.4,2.9,8.7C567.7,66.5,570.5,67.7,574,67.7z"/>
	<path class="st1" d="M603.7,39.1v5.1c1.2-1.6,2.6-2.9,4.3-4c1.7-1.1,3.6-1.6,5.8-1.6c2.2,0,4,0.3,5.6,0.9c1.6,0.6,2.9,1.5,4.1,2.7
		c2.7,2.6,4,6.1,4,10.5v18.9h-4.9V52.8c0-3-0.8-5.4-2.5-7.2c-1.7-1.8-3.9-2.7-6.6-2.7c-2.7,0-5,0.9-7,2.7c-1.9,1.9-2.9,4.2-2.9,7.2
		v18.7h-4.9V39.1H603.7z"/>
	<path class="st1" d="M153.2,101.7c4.8,0,8.7,1.6,11.7,4.9c2.8,3.1,4.3,7.1,4.3,11.9s-1.4,8.8-4.3,11.9c-3,3.2-6.9,4.9-11.7,4.9
		c-4.8,0-8.7-1.6-11.7-4.9c-2.8-3.1-4.3-7.1-4.3-11.9s1.4-8.8,4.3-11.9C144.5,103.3,148.4,101.7,153.2,101.7z M153.2,130.7
		c3.5,0,6.2-1.2,8.3-3.6c1.9-2.3,2.9-5.2,2.9-8.7c0-3.5-1-6.4-2.9-8.7c-2-2.4-4.8-3.6-8.3-3.6s-6.2,1.2-8.3,3.6
		c-1.9,2.3-2.9,5.2-2.9,8.7c0,3.5,1,6.4,2.9,8.7C146.9,129.5,149.7,130.7,153.2,130.7z"/>
	<path class="st1" d="M189.6,93.2c-2.3,0-4,0.5-5.2,1.5c-1.1,1-1.7,2.7-1.7,4.9v2.5h7.5v4.3h-7.5v28.2h-4.9v-28.2h-5.6v-4.3h5.6
		v-2.9c0-3.6,1.1-6.2,3.2-8c2.1-1.8,5.1-2.7,8.8-2.7h0.4v4.6H189.6z"/>
	<path class="st1" d="M215.2,91.7V130h23.3v4.7h-28.1V91.7H215.2z"/>
	<path class="st1" d="M269.1,129.4c-2.6,3.8-6.5,5.7-11.6,5.7c-4.7,0-8.5-1.6-11.4-4.9c-2.9-3.2-4.3-7.2-4.3-11.9
		c0-4.7,1.4-8.7,4.3-11.9c2.9-3.3,6.9-4.9,11.8-4.9c4.9,0,8.7,1.9,11.3,5.8v-5.3h4.9v32.5h-4.9V129.4z M258.1,130.7
		c3.5,0,6.3-1.2,8.3-3.6c1.9-2.3,2.9-5.2,2.9-8.7c0-3.5-1-6.4-2.9-8.7c-2-2.4-4.8-3.6-8.3-3.6c-3.5,0-6.3,1.2-8.5,3.6
		c-2,2.3-3.1,5.2-3.1,8.7c0,3.5,1,6.4,3.1,8.7C251.8,129.5,254.7,130.7,258.1,130.7z"/>
	<path class="st1" d="M287.3,107.4c2.6-3.9,6.5-5.8,11.6-5.8c4.7,0,8.5,1.6,11.4,4.9c2.9,3.2,4.4,7.2,4.4,11.9
		c0,4.7-1.5,8.7-4.4,11.9c-2.9,3.3-6.8,4.9-11.7,4.9c-4.9,0-8.7-1.9-11.3-5.7v5.2h-4.9V89.1h4.9V107.4z M298.3,130.7
		c3.5,0,6.3-1.2,8.5-3.6c2-2.3,3.1-5.2,3.1-8.7c0-3.5-1-6.4-3.1-8.7c-2.2-2.4-5-3.6-8.5-3.6c-3.5,0-6.3,1.2-8.3,3.6
		c-1.9,2.3-2.9,5.2-2.9,8.7c0,3.5,1,6.4,2.9,8.7C292,129.5,294.8,130.7,298.3,130.7z"/>
	<path class="st1" d="M335.1,101.6c4.9,0,8.8,1.6,11.8,4.9c2.9,3.1,4.3,7.1,4.3,11.9c0,4.8-1.4,8.8-4.3,11.9c-3,3.3-7,4.9-11.8,4.9
		c-4.9,0-8.8-1.6-11.8-4.9c-2.9-3.1-4.3-7.1-4.3-11.9c0-4.8,1.4-8.8,4.3-11.9C326.3,103.2,330.3,101.6,335.1,101.6z M335.1,130.7
		c3.5,0,6.3-1.2,8.3-3.6c2-2.3,2.9-5.2,2.9-8.7c0-3.5-1-6.4-2.9-8.7c-2-2.4-4.8-3.6-8.3-3.6c-3.5,0-6.3,1.2-8.3,3.6
		c-1.9,2.3-2.9,5.2-2.9,8.7c0,3.5,1,6.4,2.9,8.7C328.9,129.5,331.6,130.7,335.1,130.7z"/>
	<path class="st1" d="M381.2,134.6v-5.1c-1.2,1.6-2.6,2.9-4.3,4c-1.7,1.1-3.6,1.6-5.8,1.6c-2.2,0-4-0.3-5.6-0.9s-2.9-1.5-4.1-2.7
		c-2.7-2.6-4-6.1-4-10.5v-18.9h4.9v18.8c0,3,0.8,5.4,2.5,7.2c1.7,1.8,3.9,2.7,6.6,2.7c2.7,0,5-0.9,7-2.7c1.9-1.9,2.9-4.2,2.9-7.2
		v-18.7h4.9v32.5H381.2z"/>
	<path class="st1" d="M411.6,101.6v4.9h-0.6c-3.5,0-6.4,1.4-8.6,4.2c-2.1,2.7-3.1,5.9-3.1,9.6v14.3h-4.9v-32.5h4.9v8
		c1-3.4,3.3-5.9,6.8-7.5c1.4-0.7,3.2-1,5.2-1H411.6z"/>
	<path class="st1" d="M436.6,134.6h-4.8V91.7h20.4c4.3,0,7.8,1.2,10.4,3.6c2.6,2.4,3.9,5.6,3.9,9.8c0,5.4-2.2,9-6.6,11
		c-1.2,0.6-2.5,1-3.7,1.2l11.2,17.3h-5.7l-10.3-16.5h-14.8V134.6z M436.6,113.6h14.8c4.6,0,7.7-1.4,9.4-4.3c0.6-1.1,1-2.5,1-4.1
		c0-2.7-0.9-4.9-2.8-6.5c-1.8-1.6-4.3-2.4-7.4-2.4h-15V113.6z"/>
	<path class="st1" d="M488,101.6c4.9,0,8.8,1.6,11.8,4.9c2.9,3.1,4.3,7.1,4.3,11.9c0,4.8-1.4,8.8-4.3,11.9c-3,3.3-7,4.9-11.8,4.9
		c-4.9,0-8.8-1.6-11.8-4.9c-2.9-3.1-4.3-7.1-4.3-11.9c0-4.8,1.4-8.8,4.3-11.9C479.2,103.2,483.1,101.6,488,101.6z M488,130.7
		c3.5,0,6.3-1.2,8.3-3.6c2-2.3,2.9-5.2,2.9-8.7c0-3.5-1-6.4-2.9-8.7c-2-2.4-4.8-3.6-8.3-3.6c-3.5,0-6.3,1.2-8.3,3.6
		c-2,2.3-2.9,5.2-2.9,8.7c0,3.5,1,6.4,2.9,8.7C481.7,129.5,484.5,130.7,488,130.7z"/>
	<path class="st1" d="M524.7,101.6c4.9,0,8.8,1.6,11.8,4.9c2.9,3.1,4.3,7.1,4.3,11.9c0,4.8-1.4,8.8-4.3,11.9c-3,3.3-7,4.9-11.8,4.9
		c-4.9,0-8.8-1.6-11.8-4.9c-2.9-3.1-4.3-7.1-4.3-11.9c0-4.8,1.4-8.8,4.3-11.9C515.9,103.2,519.8,101.6,524.7,101.6z M524.7,130.7
		c3.5,0,6.3-1.2,8.3-3.6c2-2.3,2.9-5.2,2.9-8.7c0-3.5-1-6.4-2.9-8.7c-2-2.4-4.8-3.6-8.3-3.6c-3.5,0-6.3,1.2-8.3,3.6
		c-2,2.3-2.9,5.2-2.9,8.7c0,3.5,1,6.4,2.9,8.7C518.4,129.5,521.1,130.7,524.7,130.7z"/>
	<path class="st1" d="M552.1,107.1c2.2-3.6,5.5-5.5,9.9-5.5c2.2,0,4.2,0.6,6,1.7c1.8,1.1,3.3,2.8,4.3,4.8c1.5-2.7,3.8-4.7,6.9-5.9
		c1.3-0.5,2.7-0.7,4.3-0.7c1.6,0,3.1,0.3,4.5,0.9c1.5,0.6,2.7,1.5,3.9,2.7c2.4,2.6,3.6,5.9,3.6,9.8v19.6h-4.9v-19.5
		c0-2.7-0.8-4.9-2.3-6.6c-1.5-1.6-3.4-2.5-5.8-2.5c-2.5,0-4.5,0.8-6.2,2.4c-1.7,1.6-2.6,3.9-2.6,6.8v19.4h-4.9v-19.5
		c0-2.7-0.8-4.9-2.3-6.6c-1.5-1.6-3.4-2.5-5.8-2.5c-2.5,0-4.5,0.8-6.2,2.4c-1.7,1.6-2.6,3.9-2.6,6.8v19.4h-4.9v-32.5h4.9V107.1z"/>
	<path class="st1" d="M622.7,110.8c-0.4-3.4-3.2-5.1-8.2-5.1c-5,0-7.5,1.6-7.5,4.7c0,1.3,0.5,2.3,1.6,3c1.1,0.7,2.4,1.2,4,1.7
		c1.6,0.4,3.3,0.8,5.2,1.2c1.9,0.4,3.6,0.9,5.2,1.6c1.6,0.7,2.9,1.6,4,2.8s1.6,2.8,1.6,4.8c0,3.2-1.2,5.6-3.6,7.2
		c-2.4,1.7-5.6,2.5-9.7,2.5c-4.3,0-7.8-1.1-10.3-3.3c-2.3-1.9-3.6-4.4-3.8-7.5h5.1c0.3,3,2,5,5.1,6c1.1,0.3,2.2,0.5,3.3,0.5
		c1.1,0,2.1-0.1,3.1-0.2c1-0.1,1.9-0.4,2.8-0.7c2.1-0.8,3.1-2.2,3.1-4.2c0-1.3-0.5-2.4-1.6-3.1s-2.4-1.3-4-1.8
		c-1.6-0.5-3.3-0.9-5.2-1.2s-3.6-0.9-5.2-1.5c-1.6-0.6-2.9-1.5-4-2.7c-1.1-1.1-1.6-2.7-1.6-4.7c0-2.9,1.1-5.2,3.2-6.9
		c2.1-1.6,5.3-2.4,9.5-2.4c4,0,7.1,1,9.4,2.9c1.9,1.6,3,3.7,3.3,6.4H622.7z"/>
</g>
<text transform="matrix(0.9946 0 0 1 217.9165 -782.1147)" style="font-family:'MicrosoftSansSerif'; font-size:9.7766px;">G</text>
<text transform="matrix(0.979 0 0 1 225.48 -782.1147)" style="font-family:'CenturyGothic'; font-size:9.6312px;">overnment of </text>
<text transform="matrix(0.9791 0 0 1 289.8643 -782.1147)" style="font-family:'MicrosoftSansSerif'; font-size:9.7766px;">T</text>
<text transform="matrix(0.979 0 0 1 295.7119 -782.1147)" style="font-family:'CenturyGothic'; font-size:9.6312px;">elangana</text>
<text transform="matrix(0.9946 0 0 1 217.9165 -613.6147)" style="font-family:'MicrosoftSansSerif'; font-size:9.7766px;">G</text>
<text transform="matrix(0.979 0 0 1 225.48 -613.6147)" style="font-family:'CenturyGothic'; font-size:9.6312px;">overnment of </text>
<text transform="matrix(0.9791 0 0 1 289.8643 -613.6147)" style="font-family:'MicrosoftSansSerif'; font-size:9.7766px;">T</text>
<text transform="matrix(0.979 0 0 1 295.7119 -613.6147)" style="font-family:'CenturyGothic'; font-size:9.6312px;">elangana</text>
<text transform="matrix(0.9946 0 0 1 217.9165 -831.8647)" style="font-family:'MicrosoftSansSerif'; font-size:9.7766px;">Sa</text>
<text transform="matrix(0.9946 0 0 1 135 -766.8528)" style="font-family:'MicrosoftSansSerif'; font-size:33.2286px;">G</text>
<text transform="matrix(0.979 0 0 1 160.707 -766.8528)" style="font-family:'CenturyGothic'; font-size:32.7346px;">overnment of </text>
<text transform="matrix(0.9791 0 0 1 379.5376 -766.8528)" style="font-family:'MicrosoftSansSerif'; font-size:33.2286px;">T</text>
<text transform="matrix(0.979 0 0 1 399.4111 -766.8528)" style="font-family:'CenturyGothic'; font-size:32.7346px;">elangana</text>
<text transform="matrix(0 -0.9945 1 0 76.586 -765.3402)" class="st3" style="font-family:'MicrosoftSansSerif'; font-size:84.1273px;">SLR</text>
<g>
	<rect x="0" class="st2" width="102.6" height="206.5"/>
</g>
<g>
	<path class="st1" d="M142.6,158.7c1.3-0.6,2.7-0.9,4.1-0.9c1.4,0,2.6,0.2,3.7,0.5c1,0.3,2,0.7,2.8,1.3c1.7,1.1,3,2.6,3.8,4.5h-2.7
		c-0.7-1.2-1.6-2.1-2.8-2.8c-1.2-0.7-2.5-1-4-1c-1.5,0-2.8,0.2-3.8,0.7s-1.9,1.1-2.7,1.9c-1.5,1.6-2.2,3.7-2.2,6.3
		c0,2.6,0.7,4.7,2.2,6.3c1.6,1.7,3.6,2.6,6.2,2.6c2.1,0,3.9-0.6,5.4-1.9c1.6-1.4,2.4-3.1,2.4-5.3h-8v-2.3h10.3v11.7h-2.3v-3.9
		c-1.3,1.9-3,3.2-5.2,3.8c-0.8,0.2-1.9,0.3-3.2,0.3c-1.3,0-2.7-0.3-4-0.9c-1.3-0.6-2.4-1.4-3.4-2.4c-1.9-2.1-2.8-4.7-2.8-8
		c0-3.2,1-5.8,2.9-8C140.2,160.1,141.3,159.3,142.6,158.7z"/>
	<path class="st1" d="M167.9,163.5c2.4,0,4.3,0.8,5.8,2.5c1.4,1.6,2.1,3.6,2.1,6s-0.7,4.4-2.1,6c-1.5,1.6-3.4,2.5-5.8,2.5
		c-2.4,0-4.3-0.8-5.8-2.5c-1.4-1.6-2.1-3.6-2.1-6s0.7-4.4,2.1-6C163.6,164.3,165.5,163.5,167.9,163.5z M167.9,178.2
		c1.7,0,3.1-0.6,4.1-1.8c1-1.2,1.4-2.6,1.4-4.4s-0.5-3.2-1.4-4.4c-1-1.2-2.4-1.8-4.1-1.8s-3.1,0.6-4.1,1.8c-1,1.2-1.4,2.6-1.4,4.4
		s0.5,3.2,1.4,4.4C164.8,177.5,166.2,178.2,167.9,178.2z"/>
	<path class="st1" d="M192.3,163.7l-6.2,16.4h-2.8l-6.3-16.4h2.6l5.1,13.7l5-13.7H192.3z"/>
	<path class="st1" d="M201.5,178.2c2.2,0,3.7-0.9,4.6-2.8h2.6c-0.6,1.5-1.4,2.7-2.6,3.6c-1.2,0.9-2.8,1.4-4.7,1.4
		c-2.4,0-4.4-0.8-5.9-2.5c-1.5-1.6-2.2-3.6-2.2-6c0-2.4,0.7-4.4,2.1-6c1.5-1.6,3.4-2.5,5.8-2.5c2.4,0,4.3,0.8,5.8,2.5
		c1.4,1.6,2.1,3.6,2.1,6v1h-13.4c0.2,1.5,0.8,2.8,1.8,3.7C198.6,177.6,199.9,178.2,201.5,178.2z M201.3,165.7
		c-1.5,0-2.7,0.5-3.7,1.4c-0.9,0.9-1.5,2.1-1.7,3.5h10.9c-0.2-1.4-0.8-2.6-1.7-3.5C204,166.2,202.7,165.7,201.3,165.7z"/>
	<path class="st1" d="M220.6,163.5v2.5h-0.3c-1.7,0-3.1,0.7-4.2,2.1c-1,1.4-1.5,3-1.5,4.8v7.2h-2.4v-16.4h2.4v4
		c0.5-1.7,1.6-3,3.3-3.8c0.7-0.3,1.6-0.5,2.6-0.5H220.6z"/>
	<path class="st1" d="M225.6,163.7v2.6c0.6-0.8,1.3-1.5,2.1-2c0.8-0.5,1.8-0.8,2.9-0.8c1.1,0,2,0.2,2.8,0.5c0.8,0.3,1.4,0.8,2,1.4
		c1.3,1.3,2,3.1,2,5.3v9.5h-2.4v-9.5c0-1.5-0.4-2.7-1.3-3.6c-0.8-0.9-1.9-1.3-3.2-1.3c-1.3,0-2.5,0.5-3.4,1.4
		c-0.9,0.9-1.4,2.1-1.4,3.6v9.4h-2.4v-16.4H225.6z"/>
	<path class="st1" d="M243.8,166.2c1.1-1.8,2.7-2.8,4.9-2.8c1.1,0,2.1,0.3,3,0.9c0.9,0.6,1.6,1.4,2.1,2.4c0.7-1.4,1.9-2.4,3.4-2.9
		c0.6-0.2,1.3-0.4,2.1-0.4c0.8,0,1.5,0.2,2.2,0.5s1.4,0.8,1.9,1.4c1.2,1.3,1.8,2.9,1.8,4.9v9.9h-2.4v-9.8c0-1.4-0.4-2.5-1.1-3.3
		c-0.7-0.8-1.7-1.2-2.9-1.2c-1.2,0-2.2,0.4-3,1.2c-0.9,0.8-1.3,2-1.3,3.4v9.8h-2.4v-9.8c0-1.4-0.4-2.5-1.1-3.3
		c-0.7-0.8-1.7-1.2-2.9-1.2c-1.2,0-2.2,0.4-3,1.2c-0.9,0.8-1.3,2-1.3,3.4v9.8h-2.4v-16.4h2.4V166.2z"/>
	<path class="st1" d="M276.3,178.2c2.2,0,3.7-0.9,4.6-2.8h2.6c-0.6,1.5-1.4,2.7-2.6,3.6c-1.2,0.9-2.8,1.4-4.7,1.4
		c-2.4,0-4.4-0.8-5.9-2.5c-1.5-1.6-2.2-3.6-2.2-6c0-2.4,0.7-4.4,2.1-6c1.5-1.6,3.4-2.5,5.8-2.5c2.4,0,4.3,0.8,5.8,2.5
		c1.4,1.6,2.1,3.6,2.1,6v1h-13.4c0.2,1.5,0.8,2.8,1.8,3.7C273.4,177.6,274.7,178.2,276.3,178.2z M276.1,165.7
		c-1.5,0-2.7,0.5-3.7,1.4c-0.9,0.9-1.5,2.1-1.7,3.5h10.9c-0.2-1.4-0.8-2.6-1.7-3.5C278.8,166.2,277.6,165.7,276.1,165.7z"/>
	<path class="st1" d="M289.4,163.7v2.6c0.6-0.8,1.3-1.5,2.1-2c0.8-0.5,1.8-0.8,2.9-0.8c1.1,0,2,0.2,2.8,0.5c0.8,0.3,1.4,0.8,2,1.4
		c1.3,1.3,2,3.1,2,5.3v9.5h-2.4v-9.5c0-1.5-0.4-2.7-1.3-3.6c-0.8-0.9-1.9-1.3-3.2-1.3c-1.3,0-2.5,0.5-3.4,1.4
		c-0.9,0.9-1.4,2.1-1.4,3.6v9.4H287v-16.4H289.4z"/>
	<path class="st1" d="M306.5,180.1v-14.2h-3.3v-2.2h3.3v-5.9h2.4v5.9h3.7v2.2h-3.7v14.2H306.5z"/>
	<path class="st1" d="M329,163.5c2.4,0,4.3,0.8,5.8,2.5c1.4,1.6,2.1,3.6,2.1,6s-0.7,4.4-2.1,6c-1.5,1.6-3.4,2.5-5.8,2.5
		c-2.4,0-4.3-0.8-5.8-2.5c-1.4-1.6-2.1-3.6-2.1-6s0.7-4.4,2.1-6C324.7,164.3,326.6,163.5,329,163.5z M329,178.2
		c1.7,0,3.1-0.6,4.1-1.8c1-1.2,1.4-2.6,1.4-4.4s-0.5-3.2-1.4-4.4c-1-1.2-2.4-1.8-4.1-1.8s-3.1,0.6-4.1,1.8c-1,1.2-1.4,2.6-1.4,4.4
		s0.5,3.2,1.4,4.4C325.9,177.5,327.3,178.2,329,178.2z"/>
	<path class="st1" d="M346.8,159.3c-1.1,0-2,0.3-2.5,0.8c-0.6,0.5-0.8,1.3-0.8,2.5v1.2h3.7v2.2h-3.7v14.2H341v-14.2h-2.8v-2.2h2.8
		v-1.4c0-1.8,0.5-3.1,1.6-4c1-0.9,2.5-1.3,4.4-1.3h0.2v2.3H346.8z"/>
	<path class="st1" d="M372.4,160.5h-7.5v19.6h-2.4v-19.6H355v-2.4h17.5V160.5z"/>
	<path class="st1" d="M382.1,178.2c2.2,0,3.7-0.9,4.6-2.8h2.6c-0.6,1.5-1.4,2.7-2.6,3.6c-1.2,0.9-2.8,1.4-4.7,1.4
		c-2.4,0-4.4-0.8-5.9-2.5c-1.5-1.6-2.2-3.6-2.2-6c0-2.4,0.7-4.4,2.1-6c1.5-1.6,3.4-2.5,5.8-2.5c2.4,0,4.3,0.8,5.8,2.5
		c1.4,1.6,2.1,3.6,2.1,6v1h-13.4c0.2,1.5,0.8,2.8,1.8,3.7C379.2,177.6,380.5,178.2,382.1,178.2z M381.9,165.7
		c-1.5,0-2.7,0.5-3.7,1.4c-0.9,0.9-1.5,2.1-1.7,3.5h10.9c-0.2-1.4-0.8-2.6-1.7-3.5C384.6,166.2,383.4,165.7,381.9,165.7z"/>
	<path class="st1" d="M395.2,180.1h-2.4v-22.9h2.4V180.1z"/>
	<path class="st1" d="M411.9,177.5c-1.3,1.9-3.2,2.9-5.7,2.9c-2.3,0-4.2-0.8-5.6-2.5c-1.4-1.6-2.1-3.6-2.1-6c0-2.4,0.7-4.4,2.1-6
		c1.5-1.6,3.4-2.5,5.8-2.5s4.3,1,5.6,2.9v-2.7h2.4v16.4h-2.4V177.5z M406.5,178.2c1.7,0,3.1-0.6,4.1-1.8c1-1.2,1.4-2.6,1.4-4.4
		s-0.5-3.2-1.4-4.4c-1-1.2-2.4-1.8-4.1-1.8c-1.7,0-3.1,0.6-4.2,1.8c-1,1.2-1.5,2.6-1.5,4.4s0.5,3.2,1.5,4.4
		C403.4,177.5,404.8,178.2,406.5,178.2z"/>
	<path class="st1" d="M420.9,163.7v2.6c0.6-0.8,1.3-1.5,2.1-2c0.8-0.5,1.8-0.8,2.9-0.8s2,0.2,2.8,0.5c0.8,0.3,1.4,0.8,2,1.4
		c1.3,1.3,2,3.1,2,5.3v9.5h-2.4v-9.5c0-1.5-0.4-2.7-1.2-3.6c-0.8-0.9-1.9-1.3-3.2-1.3c-1.3,0-2.5,0.5-3.4,1.4
		c-0.9,0.9-1.4,2.1-1.4,3.6v9.4h-2.4v-16.4H420.9z"/>
	<path class="st1" d="M449.1,166.4v-2.6h2.4v15.9c0,2.4-0.7,4.2-2,5.4s-3.1,1.8-5.3,1.8c-2.2,0-4-0.4-5.2-1.3
		c-1.3-0.9-2.1-2-2.5-3.5h2.7c0.7,1.7,2.2,2.6,4.7,2.6c1.9,0,3.2-0.4,4-1.3s1.3-2.2,1.3-3.9v-2.3c-1.3,1.9-3.2,2.9-5.7,2.9
		c-2.3,0-4.2-0.8-5.6-2.4c-1.4-1.6-2.1-3.5-2.1-5.9s0.7-4.3,2.1-5.9c1.5-1.6,3.4-2.4,5.8-2.4S447.8,164.4,449.1,166.4z M443.7,177.9
		c0.9,0,1.7-0.2,2.3-0.5c0.7-0.3,1.3-0.7,1.8-1.3c1-1.1,1.4-2.6,1.4-4.3c0-1.7-0.5-3.2-1.4-4.3c-1-1.2-2.4-1.8-4.1-1.8
		c-1.7,0-3.1,0.6-4.2,1.8c-1,1.2-1.5,2.6-1.5,4.3s0.5,3.2,1.5,4.3C440.6,177.3,441.9,177.9,443.7,177.9z"/>
	<path class="st1" d="M468.2,177.5c-1.3,1.9-3.2,2.9-5.7,2.9c-2.3,0-4.2-0.8-5.6-2.5c-1.4-1.6-2.1-3.6-2.1-6c0-2.4,0.7-4.4,2.1-6
		c1.5-1.6,3.4-2.5,5.8-2.5s4.3,1,5.6,2.9v-2.7h2.4v16.4h-2.4V177.5z M462.7,178.2c1.7,0,3.1-0.6,4.1-1.8c1-1.2,1.4-2.6,1.4-4.4
		s-0.5-3.2-1.4-4.4c-1-1.2-2.4-1.8-4.1-1.8c-1.7,0-3.1,0.6-4.2,1.8c-1,1.2-1.5,2.6-1.5,4.4s0.5,3.2,1.5,4.4
		C459.6,177.5,461,178.2,462.7,178.2z"/>
	<path class="st1" d="M477.1,163.7v2.6c0.6-0.8,1.3-1.5,2.1-2c0.8-0.5,1.8-0.8,2.9-0.8s2,0.2,2.8,0.5c0.8,0.3,1.4,0.8,2,1.4
		c1.3,1.3,2,3.1,2,5.3v9.5h-2.4v-9.5c0-1.5-0.4-2.7-1.2-3.6c-0.8-0.9-1.9-1.3-3.2-1.3c-1.3,0-2.5,0.5-3.4,1.4
		c-0.9,0.9-1.4,2.1-1.4,3.6v9.4h-2.4v-16.4H477.1z"/>
	<path class="st1" d="M505.4,177.5c-1.3,1.9-3.2,2.9-5.7,2.9c-2.3,0-4.2-0.8-5.6-2.5c-1.4-1.6-2.1-3.6-2.1-6c0-2.4,0.7-4.4,2.1-6
		c1.5-1.6,3.4-2.5,5.8-2.5s4.3,1,5.6,2.9v-2.7h2.4v16.4h-2.4V177.5z M499.9,178.2c1.7,0,3.1-0.6,4.1-1.8c1-1.2,1.4-2.6,1.4-4.4
		s-0.5-3.2-1.4-4.4c-1-1.2-2.4-1.8-4.1-1.8c-1.7,0-3.1,0.6-4.2,1.8c-1,1.2-1.5,2.6-1.5,4.4s0.5,3.2,1.5,4.4
		C496.8,177.5,498.2,178.2,499.9,178.2z"/>
</g>
<g>
	<path class="st3" d="M33.3,169.2c0.9,1.1,2,1.8,3.1,2.2c1.1,0.4,2.4,0.6,3.7,0.6s2.5-0.6,3.6-1.7c1.1-1.1,2-2.6,2.8-4.4
		c0.7-1.8,1.4-3.9,2-6.3c0.6-2.3,1.2-4.7,1.8-7.2c0.6-2.4,1.3-4.8,2.1-7.2c0.8-2.3,1.8-4.4,3-6.3c2.6-4.1,6.1-6.1,10.6-6.1
		c5.3,0,9.4,2,12.2,6c2.8,4,4.2,9.5,4.2,16.5c0,7.9-1.7,14-5,18.2c-3,3.7-7.2,5.8-12.7,6.3v-6.7c3.9-0.2,6.9-2.1,9-5.7
		c1.8-3.1,2.7-7.2,2.7-12.2c0-10.6-3.4-15.9-10.1-15.9c-2.3,0-4.1,1-5.4,2.9c-1.3,1.9-2.4,4.3-3.3,7.2c-0.9,2.9-1.7,6-2.4,9.3
		c-0.7,3.3-1.7,6.5-2.9,9.3c-1.2,2.9-2.7,5.3-4.7,7.2c-1.9,1.9-4.5,2.9-7.8,2.9c-4.7,0-8.4-1.8-11.4-5.3c-2.9-3.5-4.4-8.9-4.4-16
		c0-7.2,1.7-12.8,5-16.7c2.9-3.6,6.7-5.5,11.3-5.7v6.6c-4.7,0.6-7.8,3.6-9.4,9.1c-0.6,1.9-0.9,4.4-0.9,7.2c0,2.9,0.3,5.3,1,7.3
		C31.6,166.6,32.4,168.1,33.3,169.2z"/>
	<path class="st3" d="M24.6,116.6h50.8V85.7h6.2V123h-57V116.6z"/>
	<path class="st3" d="M81.6,70.9v6.4h-57V50.2c0-5.8,1.6-10.4,4.8-13.9c3.2-3.5,7.5-5.2,13-5.2c7.1,0,12,2.9,14.6,8.8
		c0.7,1.7,1.3,3.3,1.6,4.9l23-14.9v7.6L59.7,51.2v19.7H81.6z M53.6,70.9V51.3c0-6.1-1.9-10.2-5.7-12.5c-1.4-0.9-3.3-1.3-5.5-1.3
		c-3.6,0-6.5,1.2-8.6,3.7c-2.1,2.5-3.1,5.7-3.1,9.8v20H53.6z"/>
</g>
<text transform="matrix(0.9998 0 0 1 263.6665 -851)" style="font-family:'CenturyGothic'; font-size:13.7314px;">Standa</text>
</svg>
