<?xml version="1.0" encoding="utf-8"?>
<!-- Generator: Adobe Illustrator 21.0.0, SVG Export Plug-In . SVG Version: 6.00 Build 0)  -->
<svg version="1.1" id="Layer_1" xmlns="http://www.w3.org/2000/svg" xmlns:xlink="http://www.w3.org/1999/xlink" x="0px" y="0px"
	 viewBox="0 0 110.6 175" style="enable-background:new 0 0 110.6 175;" xml:space="preserve">
<style type="text/css">
	.st0{fill:#A6BDD9;}
	.st1{fill:#444545;}
</style>
<g id="XMLID_7_">
	<rect class="st0" width="110.6" height="175"/>
</g>
<g id="XMLID_4_">
	<path class="st1" d="M37.4,151.6c0.9,1,1.9,1.7,3,2.1c1.1,0.4,2.3,0.5,3.5,0.5c1.2,0,2.4-0.5,3.4-1.6c1-1.1,1.9-2.5,2.6-4.2
		c0.7-1.7,1.3-3.7,1.9-6c0.5-2.2,1.1-4.5,1.7-6.8c0.6-2.3,1.2-4.6,2-6.8c0.7-2.2,1.7-4.2,2.8-6c2.5-3.9,5.8-5.8,10.1-5.8
		c5.1,0,9,1.9,11.6,5.7c2.7,3.8,4,9.1,4,15.8c0,7.6-1.6,13.4-4.8,17.4c-2.8,3.6-6.9,5.6-12.1,6.1v-6.4c3.7-0.2,6.6-2,8.5-5.4
		c1.7-3,2.5-6.9,2.5-11.7c0-10.2-3.2-15.3-9.6-15.3c-2.2,0-3.9,0.9-5.2,2.7c-1.3,1.8-2.3,4.1-3.1,6.9c-0.8,2.8-1.6,5.7-2.3,8.9
		c-0.7,3.2-1.6,6.2-2.7,8.9c-1.1,2.8-2.6,5.1-4.4,6.9c-1.8,1.8-4.3,2.7-7.4,2.7c-4.4,0-8-1.7-10.8-5.1c-2.8-3.4-4.2-8.5-4.2-15.3
		c0-6.9,1.6-12.2,4.8-16c2.8-3.4,6.4-5.3,10.7-5.5v6.3c-4.5,0.5-7.5,3.4-8.9,8.7c-0.5,1.9-0.8,4.2-0.8,6.9c0,2.8,0.3,5.1,0.9,7
		C35.7,149.1,36.5,150.6,37.4,151.6z"/>
	<path class="st1" d="M29.1,99h48.4V69.4h5.9v35.8H29.1V99z"/>
	<path class="st1" d="M83.4,53v6.2H29.1v-26c0-5.5,1.5-9.9,4.6-13.3c3-3.3,7.1-5,12.4-5c6.8,0,11.4,2.8,13.9,8.4
		c0.7,1.6,1.2,3.1,1.6,4.7l21.9-14.3V21L62.5,34.1V53H83.4z M56.7,53V34.2c0-5.8-1.8-9.8-5.4-12C49.9,21.4,48.2,21,46,21
		c-3.4,0-6.2,1.2-8.2,3.5c-2,2.4-3,5.5-3,9.3V53H56.7z"/>
</g>
</svg>
