<?xml version="1.0" encoding="utf-8"?>
<!-- Generator: Adobe Illustrator 13.0.0, SVG Export Plug-In . SVG Version: 6.00 Build 14948)  -->
<!DOCTYPE svg PUBLIC "-//W3C//DTD SVG 1.1//EN" "http://www.w3.org/Graphics/SVG/1.1/DTD/svg11.dtd">
<svg version="1.1" id="Layer_1" xmlns="http://www.w3.org/2000/svg" xmlns:xlink="http://www.w3.org/1999/xlink" x="0px" y="0px"
	 width="600px" height="400px" viewBox="0 0 600 400" enable-background="new 0 0 600 400" xml:space="preserve">
<g id="XMLID_7_">
	<rect x="100" y="73.6" fill="#A6BDD9" width="400" height="252.8"/>
</g>
<g id="XMLID_4_">
	<path fill="#444545" d="M153.486,159.086c-2.286,2.057-3.887,4.343-4.801,6.856c-0.914,2.515-1.143,5.258-1.143,8
		c0,2.743,1.143,5.486,3.657,7.771c2.515,2.286,5.714,4.343,9.6,5.943c3.886,1.6,8.458,2.971,13.714,4.343
		c5.029,1.143,10.286,2.514,15.543,3.886c5.258,1.371,10.515,2.742,15.543,4.571c5.029,1.6,9.601,3.886,13.715,6.4
		c8.914,5.714,13.257,13.257,13.257,23.086c0,11.656-4.343,20.571-13.028,26.514c-8.686,6.172-20.801,9.143-36.114,9.143
		c-17.372,0-30.629-3.656-39.771-10.971c-8.229-6.4-12.8-15.771-13.942-27.657h14.628c0.457,8.457,4.571,15.086,12.343,19.429
		c6.857,3.886,15.771,5.714,26.743,5.714c23.313,0,34.972-7.314,34.972-21.942c0-5.029-2.058-8.915-6.172-11.886
		c-4.114-2.972-9.371-5.258-15.771-7.086c-6.4-1.829-13.028-3.657-20.343-5.257c-7.314-1.601-14.171-3.658-20.343-6.172
		c-6.4-2.515-11.657-5.943-15.771-10.058s-6.172-9.828-6.172-16.914c0-10.058,3.887-18.286,11.658-24.686
		c7.771-6.4,19.428-9.601,34.971-9.601c15.771,0,27.886,3.657,36.572,10.972c7.771,6.4,12.113,14.629,12.57,24.457H215.2
		c-1.144-10.285-7.771-17.143-19.886-20.343c-4.343-1.143-9.6-1.828-15.771-1.828c-6.4,0-11.657,0.686-16,2.057
		C159.2,155.2,155.771,157.028,153.486,159.086z"/>
	<path fill="#444545" d="M273.715,140.114v110.629h67.657v13.485h-81.829V140.114H273.715z"/>
	<path fill="#444545" d="M378.857,264.229h-14.172V140.114h59.429c12.571,0,22.629,3.429,30.4,10.514
		c7.543,6.857,11.429,16.229,11.429,28.343c0,15.542-6.4,26.058-19.2,31.771c-3.657,1.6-7.086,2.742-10.743,3.657l32.686,50.057H452
		l-29.942-48h-43.2V264.229z M378.857,203.2h42.972c13.257,0,22.399-4.114,27.429-12.343c1.828-3.2,2.742-7.085,2.742-12.114
		c0-7.771-2.742-14.171-8-18.743c-5.485-4.571-12.571-6.857-21.257-6.857h-43.886V203.2z"/>
</g>
</svg>
