<?xml version="1.0" encoding="utf-8"?>
<!-- Generator: Adobe Illustrator 21.0.0, SVG Export Plug-In . SVG Version: 6.00 Build 0)  -->
<svg version="1.1" id="Layer_1" xmlns="http://www.w3.org/2000/svg" xmlns:xlink="http://www.w3.org/1999/xlink" x="0px" y="0px"
	 viewBox="0 0 674 175" style="enable-background:new 0 0 674 175;" xml:space="preserve">
<style type="text/css">
	.st0{fill:#A6BDD9;}
	.st1{fill:#444545;}
</style>
<g id="XMLID_1_">
	<rect class="st0" width="110.6" height="175"/>
</g>
<g id="XMLID_2_">
	<path class="st1" d="M147.8,22.6c-0.7,0.6-1.2,1.3-1.4,2c-0.2,0.7-0.4,1.5-0.4,2.4c0,0.8,0.4,1.6,1.1,2.3c0.7,0.7,1.7,1.3,2.9,1.8
		c1.2,0.5,2.6,0.9,4.1,1.3c1.5,0.4,3.1,0.8,4.7,1.1c1.6,0.4,3.1,0.8,4.7,1.3c1.5,0.5,2.9,1.1,4.1,1.9c2.7,1.7,4,4,4,6.9
		c0,3.5-1.3,6.1-3.9,8c-2.6,1.8-6.2,2.7-10.8,2.7c-5.2,0-9.1-1.1-11.9-3.2c-2.4-1.9-3.8-4.7-4.1-8.3h4.4c0.1,2.5,1.4,4.5,3.7,5.8
		c2,1.2,4.7,1.7,8,1.7c6.9,0,10.4-2.2,10.4-6.6c0-1.5-0.6-2.7-1.9-3.5c-1.3-0.9-2.8-1.6-4.7-2.1c-1.9-0.6-3.9-1.1-6.1-1.6
		c-2.2-0.5-4.2-1.1-6.1-1.9c-1.9-0.8-3.5-1.8-4.7-3c-1.3-1.3-1.9-2.9-1.9-5.1c0-3,1.2-5.5,3.5-7.4c2.3-1.9,5.8-2.9,10.5-2.9
		c4.7,0,8.3,1.1,10.9,3.2c2.4,1.9,3.6,4.3,3.8,7.3h-4.3c-0.4-3.1-2.4-5.1-5.9-6.1c-1.3-0.4-2.8-0.6-4.7-0.6c-1.9,0-3.5,0.2-4.8,0.6
		C149.5,21.5,148.5,22,147.8,22.6z"/>
	<path class="st1" d="M205.5,21h-12.9v33h-4.2V21h-12.9v-4h30.1V21z"/>
	<path class="st1" d="M241.5,54h-4.6l-4.5-10.8h-18.4L209.4,54h-4.6l15.7-37.1h5.3L241.5,54z M230.7,39.4l-7.6-18.1l-7.6,18.1H230.7
		z"/>
	<path class="st1" d="M279.7,16.9V54h-4.9L252,22.7V54h-4.2V16.9h4.9l22.9,31.2V16.9H279.7z"/>
	<path class="st1" d="M306,16.9c2.2,0,4.3,0.4,6.4,1.3c2.1,0.8,3.9,2.1,5.4,3.7c3.5,3.5,5.2,8.1,5.2,13.6c0,5.5-1.7,10.1-5.2,13.6
		c-1.6,1.6-3.4,2.8-5.4,3.7c-2.1,0.8-4.2,1.3-6.4,1.3h-15.6V16.9H306z M305.8,50c3.9,0,7-1.4,9.5-4.3c2.4-2.8,3.5-6.2,3.5-10.2
		c0-4.1-1.2-7.5-3.5-10.2c-2.4-2.9-5.6-4.3-9.5-4.3h-11.3V50H305.8z"/>
	<path class="st1" d="M363,54h-4.6l-4.5-10.8h-18.4L330.9,54h-4.6L342,16.9h5.3L363,54z M352.2,39.4l-7.6-18.1l-7.6,18.1H352.2z"/>
	<path class="st1" d="M373.5,54h-4.2V16.9H387c3.8,0,6.8,1,9.1,3.1c2.3,2.1,3.4,4.9,3.4,8.5c0,4.6-1.9,7.8-5.8,9.5
		c-1.1,0.5-2.1,0.8-3.2,1.1l9.7,15h-5l-9-14.2h-12.9V54z M373.5,35.8h12.8c4,0,6.7-1.2,8.2-3.7c0.6-0.9,0.8-2.1,0.8-3.6
		c0-2.4-0.8-4.2-2.4-5.6c-1.6-1.4-3.7-2-6.4-2h-13V35.8z"/>
	<path class="st1" d="M423.9,16.9c2.2,0,4.3,0.4,6.4,1.3c2.1,0.8,3.9,2.1,5.4,3.7c3.5,3.5,5.2,8.1,5.2,13.6c0,5.5-1.7,10.1-5.2,13.6
		c-1.6,1.6-3.4,2.8-5.4,3.7c-2.1,0.8-4.2,1.3-6.4,1.3h-15.6V16.9H423.9z M423.8,50c3.9,0,7-1.4,9.5-4.3c2.4-2.8,3.5-6.2,3.5-10.2
		c0-4.1-1.2-7.5-3.5-10.2c-2.4-2.9-5.6-4.3-9.5-4.3h-11.3V50H423.8z"/>
	<path class="st1" d="M453.5,54h-4.2V16.9h4.2V54z"/>
	<path class="st1" d="M468.4,22.6c-0.7,0.6-1.2,1.3-1.4,2c-0.2,0.7-0.4,1.5-0.4,2.4c0,0.8,0.4,1.6,1.1,2.3c0.7,0.7,1.7,1.3,2.9,1.8
		c1.2,0.5,2.6,0.9,4.1,1.3c1.5,0.4,3.1,0.8,4.7,1.1c1.6,0.4,3.1,0.8,4.7,1.3c1.5,0.5,2.9,1.1,4.1,1.9c2.7,1.7,4,4,4,6.9
		c0,3.5-1.3,6.1-3.9,8c-2.6,1.8-6.2,2.7-10.8,2.7c-5.2,0-9.1-1.1-11.9-3.2c-2.4-1.9-3.8-4.7-4.1-8.3h4.4c0.1,2.5,1.4,4.5,3.7,5.8
		c2,1.2,4.7,1.7,8,1.7c6.9,0,10.4-2.2,10.4-6.6c0-1.5-0.6-2.7-1.9-3.5c-1.3-0.9-2.8-1.6-4.7-2.1c-1.9-0.6-3.9-1.1-6.1-1.6
		c-2.2-0.5-4.2-1.1-6.1-1.9c-1.9-0.8-3.5-1.8-4.7-3c-1.3-1.3-1.9-2.9-1.9-5.1c0-3,1.2-5.5,3.5-7.4c2.3-1.9,5.8-2.9,10.5-2.9
		c4.7,0,8.3,1.1,10.9,3.2c2.4,1.9,3.6,4.3,3.8,7.3h-4.3c-0.4-3.1-2.4-5.1-5.9-6.1c-1.3-0.4-2.8-0.6-4.7-0.6c-1.9,0-3.5,0.2-4.8,0.6
		C470.1,21.5,469.1,22,468.4,22.6z"/>
	<path class="st1" d="M532.5,54h-4.6l-4.5-10.8H505L500.4,54h-4.6l15.7-37.1h5.3L532.5,54z M521.7,39.4l-7.6-18.1l-7.6,18.1H521.7z"
		/>
	<path class="st1" d="M561.8,21h-12.9v33h-4.2V21h-12.9v-4h30.1V21z"/>
	<path class="st1" d="M572.9,54h-4.2V16.9h4.2V54z"/>
	<path class="st1" d="M600,16.5c5.5,0,10.1,1.8,13.6,5.5c3.5,3.6,5.2,8.1,5.2,13.4s-1.7,9.9-5.2,13.4c-3.5,3.7-8.1,5.5-13.6,5.5
		c-5.5,0-10.1-1.8-13.6-5.5c-3.5-3.6-5.2-8.1-5.2-13.4s1.7-9.9,5.2-13.4C589.9,18.3,594.5,16.5,600,16.5z M600,50.4
		c4.4,0,8-1.4,10.7-4.3c2.6-2.8,3.9-6.3,3.9-10.6c0-4.3-1.3-7.8-3.9-10.6c-2.7-2.9-6.3-4.3-10.7-4.3c-4.4,0-8,1.4-10.7,4.3
		c-2.6,2.8-3.9,6.3-3.9,10.6c0,4.3,1.3,7.8,3.9,10.6C592,48.9,595.6,50.4,600,50.4z"/>
	<path class="st1" d="M659.1,16.9V54h-4.9l-22.9-31.3V54h-4.2V16.9h4.9l22.9,31.2V16.9H659.1z"/>
	<path class="st1" d="M160,74.7c5.5,0,10.1,1.8,13.6,5.5c3.5,3.6,5.2,8.1,5.2,13.4s-1.7,9.9-5.2,13.4c-3.5,3.7-8.1,5.5-13.6,5.5
		c-5.5,0-10.1-1.8-13.6-5.5c-3.5-3.6-5.2-8.1-5.2-13.4s1.7-9.9,5.2-13.4C149.9,76.5,154.5,74.7,160,74.7z M160,108.6
		c4.4,0,8-1.4,10.7-4.3c2.6-2.8,3.9-6.3,3.9-10.6c0-4.3-1.3-7.8-3.9-10.6c-2.7-2.9-6.3-4.3-10.7-4.3c-4.4,0-8,1.4-10.7,4.3
		c-2.6,2.8-3.9,6.3-3.9,10.6c0,4.3,1.3,7.8,3.9,10.6C152,107.1,155.6,108.6,160,108.6z"/>
	<path class="st1" d="M189.7,79.2V92h20.1v4.1h-20.1v16.1h-4.2V75.1h26.8v4H189.7z"/>
	<path class="st1" d="M234.3,75.1v33h20.2v4h-24.4V75.1H234.3z"/>
	<path class="st1" d="M292.3,112.2h-4.6l-4.5-10.8h-18.4l-4.5,10.8h-4.6l15.7-37.1h5.3L292.3,112.2z M281.5,97.6L274,79.5l-7.6,18.1
		H281.5z"/>
	<path class="st1" d="M325.4,84.9c0,4.1-1.7,6.9-5,8.3c3.1,1,5.2,2.9,6.3,5.5c0.4,1,0.6,2.3,0.6,3.6c0,4.5-2.4,7.5-7.1,9
		c-1.6,0.5-3.4,0.8-5.5,0.8H297V75.1h16.6c4,0,7,1.1,9.1,3.2C324.5,80.1,325.4,82.3,325.4,84.9z M301.2,91.7h12.4
		c3.4,0,5.7-1.2,6.9-3.5c0.4-0.8,0.6-1.7,0.6-2.7s-0.1-1.8-0.4-2.5c-0.3-0.7-0.7-1.4-1.2-1.9c-1.2-1.3-3-2-5.4-2h-12.9V91.7z
		 M315.1,108.2c2.6,0,4.6-0.5,5.9-1.6c1.4-1.1,2.1-2.6,2.1-4.5c0-1.9-0.7-3.4-2-4.6c-1.5-1.3-3.6-2-6.4-2h-13.4v12.7H315.1z"/>
	<path class="st1" d="M350.6,74.7c5.5,0,10.1,1.8,13.6,5.5c3.5,3.6,5.2,8.1,5.2,13.4s-1.7,9.9-5.2,13.4c-3.5,3.7-8.1,5.5-13.6,5.5
		c-5.5,0-10.1-1.8-13.6-5.5c-3.5-3.6-5.2-8.1-5.2-13.4s1.7-9.9,5.2-13.4C340.5,76.5,345,74.7,350.6,74.7z M350.6,108.6
		c4.4,0,8-1.4,10.7-4.3c2.6-2.8,3.9-6.3,3.9-10.6c0-4.3-1.3-7.8-3.9-10.6c-2.7-2.9-6.3-4.3-10.7-4.3c-4.4,0-8,1.4-10.7,4.3
		c-2.6,2.8-3.9,6.3-3.9,10.6c0,4.3,1.3,7.8,3.9,10.6C342.6,107.1,346.2,108.6,350.6,108.6z"/>
	<path class="st1" d="M407.2,75.1v21.1c0,4.9-1.5,8.9-4.4,11.9s-6.7,4.5-11.4,4.5c-4.6,0-8.4-1.5-11.3-4.5c-2.9-3-4.4-7-4.4-11.9
		V75.1h4.2v21.2c0,4,1.2,7.1,3.6,9.4c2.1,1.9,4.7,2.9,8,2.9s5.9-1,8-2.9c2.4-2.2,3.6-5.3,3.6-9.4V75.1H407.2z"/>
	<path class="st1" d="M420,112.2h-4.2V75.1h17.8c3.8,0,6.8,1,9.1,3.1c2.3,2.1,3.4,4.9,3.4,8.5c0,4.6-1.9,7.8-5.8,9.5
		c-1.1,0.5-2.1,0.8-3.2,1.1l9.7,15h-5l-9-14.2H420V112.2z M420,94h12.8c4,0,6.7-1.2,8.2-3.7c0.6-0.9,0.8-2.1,0.8-3.6
		c0-2.4-0.8-4.2-2.4-5.6c-1.6-1.4-3.7-2-6.4-2h-13V94z"/>
	<path class="st1" d="M469.4,112.2h-4.2V75.1h17.8c3.8,0,6.8,1,9.1,3.1c2.3,2.1,3.4,4.9,3.4,8.5c0,4.6-1.9,7.8-5.8,9.5
		c-1.1,0.5-2.1,0.8-3.2,1.1l9.7,15h-5l-9-14.2h-12.9V112.2z M469.4,94h12.8c4,0,6.7-1.2,8.2-3.7c0.6-0.9,0.8-2.1,0.8-3.6
		c0-2.4-0.8-4.2-2.4-5.6c-1.6-1.4-3.7-2-6.4-2h-13V94z"/>
	<path class="st1" d="M519.1,74.7c5.5,0,10.1,1.8,13.6,5.5c3.5,3.6,5.2,8.1,5.2,13.4s-1.7,9.9-5.2,13.4c-3.5,3.7-8.1,5.5-13.6,5.5
		c-5.5,0-10.1-1.8-13.6-5.5c-3.5-3.6-5.2-8.1-5.2-13.4s1.7-9.9,5.2-13.4C509.1,76.5,513.6,74.7,519.1,74.7z M519.1,108.6
		c4.4,0,8-1.4,10.7-4.3c2.6-2.8,3.9-6.3,3.9-10.6c0-4.3-1.3-7.8-3.9-10.6c-2.7-2.9-6.3-4.3-10.7-4.3c-4.4,0-8,1.4-10.7,4.3
		c-2.6,2.8-3.9,6.3-3.9,10.6c0,4.3,1.3,7.8,3.9,10.6C511.2,107.1,514.7,108.6,519.1,108.6z"/>
	<path class="st1" d="M561.1,74.7c5.5,0,10.1,1.8,13.6,5.5c3.5,3.6,5.2,8.1,5.2,13.4s-1.7,9.9-5.2,13.4c-3.5,3.7-8.1,5.5-13.6,5.5
		c-5.5,0-10.1-1.8-13.6-5.5c-3.5-3.6-5.2-8.1-5.2-13.4s1.7-9.9,5.2-13.4C551.1,76.5,555.6,74.7,561.1,74.7z M561.1,108.6
		c4.4,0,8-1.4,10.7-4.3c2.6-2.8,3.9-6.3,3.9-10.6c0-4.3-1.3-7.8-3.9-10.6c-2.7-2.9-6.3-4.3-10.7-4.3c-4.4,0-8,1.4-10.7,4.3
		c-2.6,2.8-3.9,6.3-3.9,10.6c0,4.3,1.3,7.8,3.9,10.6C553.2,107.1,556.7,108.6,561.1,108.6z"/>
	<path class="st1" d="M622.7,75.1v37.1h-4.2V81.5l-13.7,17.6l-13.9-17.6v30.7h-4.2V75.1h4.9l13.3,17.6l13-17.6H622.7z"/>
	<path class="st1" d="M636.1,80.8c-0.7,0.6-1.2,1.3-1.4,2c-0.2,0.7-0.4,1.5-0.4,2.4c0,0.8,0.4,1.6,1.1,2.3c0.7,0.7,1.7,1.3,2.9,1.8
		c1.2,0.5,2.6,0.9,4.1,1.3c1.5,0.4,3.1,0.8,4.7,1.1c1.6,0.4,3.1,0.8,4.7,1.3c1.5,0.5,2.9,1.1,4.1,1.9c2.7,1.7,4,4,4,6.9
		c0,3.5-1.3,6.1-3.9,8c-2.6,1.8-6.2,2.7-10.8,2.7c-5.2,0-9.1-1.1-11.9-3.2c-2.4-1.9-3.8-4.7-4.1-8.3h4.4c0.1,2.5,1.4,4.5,3.7,5.8
		c2,1.2,4.7,1.7,8,1.7c6.9,0,10.4-2.2,10.4-6.6c0-1.5-0.6-2.7-1.9-3.5c-1.3-0.9-2.8-1.6-4.7-2.1c-1.9-0.6-3.9-1.1-6.1-1.6
		c-2.2-0.5-4.2-1.1-6.1-1.9c-1.9-0.8-3.5-1.8-4.7-3c-1.3-1.3-1.9-2.9-1.9-5.1c0-3,1.2-5.5,3.5-7.4c2.3-1.9,5.8-2.9,10.5-2.9
		c4.7,0,8.3,1.1,10.9,3.2c2.4,1.9,3.6,4.3,3.8,7.3h-4.3c-0.4-3.1-2.4-5.1-5.9-6.1c-1.3-0.4-2.8-0.6-4.7-0.6c-1.9,0-3.5,0.2-4.8,0.6
		C637.8,79.7,636.8,80.2,636.1,80.8z"/>
</g>
<g id="XMLID_5_">
	<path class="st1" d="M147.4,138.4c1.3-0.6,2.6-0.8,4-0.8s2.5,0.2,3.6,0.4c1,0.3,1.9,0.7,2.7,1.2c1.7,1.1,2.9,2.5,3.7,4.4h-2.6
		c-0.6-1.2-1.5-2.1-2.7-2.7c-1.1-0.7-2.4-1-3.9-1c-1.5,0-2.7,0.2-3.7,0.7c-1,0.4-1.9,1-2.6,1.8c-1.5,1.6-2.2,3.6-2.2,6
		c0,2.5,0.7,4.5,2.1,6c1.5,1.6,3.5,2.5,6,2.5c2,0,3.7-0.6,5.2-1.9c1.5-1.3,2.3-3,2.3-5.2h-7.7v-2.2h10V159h-2.2v-3.7
		c-1.2,1.8-2.9,3.1-5.1,3.7c-0.8,0.2-1.8,0.3-3.1,0.3c-1.3,0-2.6-0.3-3.9-0.8c-1.3-0.6-2.4-1.3-3.3-2.3c-1.8-2-2.8-4.6-2.8-7.7
		c0-3.1,0.9-5.6,2.8-7.7C145,139.7,146.1,139,147.4,138.4z"/>
	<path class="st1" d="M173.1,142.7c2.4,0,4.3,0.8,5.8,2.4c1.4,1.5,2.1,3.5,2.1,5.9s-0.7,4.3-2.1,5.9c-1.5,1.6-3.4,2.4-5.8,2.4
		c-2.4,0-4.3-0.8-5.8-2.4c-1.4-1.5-2.1-3.5-2.1-5.9s0.7-4.3,2.1-5.9C168.7,143.5,170.7,142.7,173.1,142.7z M173.1,157.1
		c1.7,0,3.1-0.6,4.1-1.8c1-1.1,1.4-2.6,1.4-4.3s-0.5-3.2-1.4-4.3c-1-1.2-2.4-1.8-4.1-1.8c-1.7,0-3.1,0.6-4.1,1.8
		c-1,1.1-1.4,2.6-1.4,4.3s0.5,3.2,1.4,4.3C170,156.5,171.3,157.1,173.1,157.1z"/>
	<path class="st1" d="M198.2,143l-6.2,16h-2.8l-6.3-16h2.6l5.1,13.4l5-13.4H198.2z"/>
	<path class="st1" d="M208.3,157.1c2.2,0,3.7-0.9,4.6-2.7h2.6c-0.6,1.5-1.4,2.6-2.6,3.5c-1.2,0.9-2.8,1.3-4.7,1.3
		c-2.4,0-4.4-0.8-5.9-2.4c-1.5-1.6-2.2-3.5-2.2-5.9c0-2.4,0.7-4.3,2.1-5.9c1.5-1.6,3.4-2.4,5.8-2.4c2.4,0,4.3,0.8,5.8,2.4
		c1.4,1.5,2.1,3.5,2.1,5.9v1h-13.4c0.2,1.5,0.8,2.7,1.8,3.6C205.4,156.6,206.7,157.1,208.3,157.1z M208.1,144.9
		c-1.5,0-2.7,0.5-3.7,1.4c-0.9,0.9-1.5,2-1.7,3.4h10.9c-0.2-1.4-0.8-2.5-1.7-3.4C210.8,145.4,209.6,144.9,208.1,144.9z"/>
	<path class="st1" d="M228.4,142.7v2.4h-0.3c-1.7,0-3.1,0.7-4.2,2.1c-1,1.3-1.5,2.9-1.5,4.7v7h-2.4v-16h2.4v3.9
		c0.5-1.7,1.6-2.9,3.3-3.7c0.7-0.3,1.6-0.5,2.6-0.5H228.4z"/>
	<path class="st1" d="M234.2,143v2.5c0.6-0.8,1.3-1.4,2.1-2s1.8-0.8,2.8-0.8c1.1,0,2,0.1,2.8,0.4c0.8,0.3,1.4,0.7,2,1.3
		c1.3,1.3,2,3,2,5.2v9.3h-2.4v-9.2c0-1.5-0.4-2.6-1.2-3.5s-1.9-1.3-3.2-1.3c-1.3,0-2.5,0.4-3.4,1.3c-0.9,0.9-1.4,2.1-1.4,3.5v9.2
		h-2.4v-16H234.2z"/>
	<path class="st1" d="M253.2,145.4c1.1-1.8,2.7-2.7,4.9-2.7c1.1,0,2.1,0.3,3,0.8c0.9,0.6,1.6,1.4,2.1,2.4c0.7-1.3,1.9-2.3,3.4-2.9
		c0.6-0.2,1.3-0.4,2.1-0.4c0.8,0,1.5,0.2,2.2,0.5c0.7,0.3,1.3,0.8,1.9,1.3c1.2,1.3,1.8,2.9,1.8,4.8v9.7h-2.4v-9.6
		c0-1.3-0.4-2.4-1.1-3.3c-0.7-0.8-1.7-1.2-2.8-1.2c-1.2,0-2.2,0.4-3,1.2c-0.9,0.8-1.3,1.9-1.3,3.3v9.6h-2.4v-9.6
		c0-1.3-0.4-2.4-1.1-3.3c-0.7-0.8-1.7-1.2-2.8-1.2c-1.2,0-2.2,0.4-3,1.2c-0.9,0.8-1.3,1.9-1.3,3.3v9.6h-2.4v-16h2.4V145.4z"/>
	<path class="st1" d="M286.7,157.1c2.2,0,3.7-0.9,4.6-2.7h2.6c-0.6,1.5-1.4,2.6-2.6,3.5c-1.2,0.9-2.8,1.3-4.7,1.3
		c-2.4,0-4.4-0.8-5.9-2.4c-1.5-1.6-2.2-3.5-2.2-5.9c0-2.4,0.7-4.3,2.1-5.9c1.5-1.6,3.4-2.4,5.8-2.4c2.4,0,4.3,0.8,5.8,2.4
		c1.4,1.5,2.1,3.5,2.1,5.9v1H281c0.2,1.5,0.8,2.7,1.8,3.6C283.8,156.6,285.1,157.1,286.7,157.1z M286.5,144.9
		c-1.5,0-2.7,0.5-3.7,1.4c-0.9,0.9-1.5,2-1.7,3.4h10.9c-0.2-1.4-0.8-2.5-1.7-3.4C289.2,145.4,287.9,144.9,286.5,144.9z"/>
	<path class="st1" d="M300.6,143v2.5c0.6-0.8,1.3-1.4,2.1-2s1.8-0.8,2.8-0.8c1.1,0,2,0.1,2.8,0.4c0.8,0.3,1.4,0.7,2,1.3
		c1.3,1.3,2,3,2,5.2v9.3H310v-9.2c0-1.5-0.4-2.6-1.2-3.5s-1.9-1.3-3.2-1.3c-1.3,0-2.5,0.4-3.4,1.3c-0.9,0.9-1.4,2.1-1.4,3.5v9.2
		h-2.4v-16H300.6z"/>
	<path class="st1" d="M318.6,159v-13.9h-3.3V143h3.3v-5.7h2.4v5.7h3.7v2.1H321V159H318.6z"/>
	<path class="st1" d="M342.8,142.7c2.4,0,4.3,0.8,5.8,2.4c1.4,1.5,2.1,3.5,2.1,5.9s-0.7,4.3-2.1,5.9c-1.5,1.6-3.4,2.4-5.8,2.4
		c-2.4,0-4.3-0.8-5.8-2.4c-1.4-1.5-2.1-3.5-2.1-5.9s0.7-4.3,2.1-5.9C338.5,143.5,340.5,142.7,342.8,142.7z M342.8,157.1
		c1.7,0,3.1-0.6,4.1-1.8c1-1.1,1.4-2.6,1.4-4.3s-0.5-3.2-1.4-4.3c-1-1.2-2.4-1.8-4.1-1.8c-1.7,0-3.1,0.6-4.1,1.8
		c-1,1.1-1.4,2.6-1.4,4.3s0.5,3.2,1.4,4.3C339.8,156.5,341.1,157.1,342.8,157.1z"/>
	<path class="st1" d="M361.5,138.6c-1.1,0-2,0.3-2.5,0.8s-0.8,1.3-0.8,2.4v1.2h3.7v2.1h-3.7V159h-2.4v-13.9H353V143h2.8v-1.4
		c0-1.7,0.5-3.1,1.6-3.9c1-0.9,2.5-1.3,4.4-1.3h0.2v2.3H361.5z"/>
	<path class="st1" d="M388.6,140.1h-7.4V159h-2.4v-18.9h-7.4v-2.3h17.2V140.1z"/>
	<path class="st1" d="M396.1,157.1c2.2,0,3.7-0.9,4.6-2.7h2.6c-0.6,1.5-1.4,2.6-2.6,3.5c-1.2,0.9-2.8,1.3-4.7,1.3
		c-2.4,0-4.4-0.8-5.9-2.4c-1.5-1.6-2.2-3.5-2.2-5.9c0-2.4,0.7-4.3,2.1-5.9c1.5-1.6,3.4-2.4,5.8-2.4c2.4,0,4.3,0.8,5.8,2.4
		c1.4,1.5,2.1,3.5,2.1,5.9v1h-13.4c0.2,1.5,0.8,2.7,1.8,3.6C393.2,156.6,394.5,157.1,396.1,157.1z M395.9,144.9
		c-1.5,0-2.7,0.5-3.7,1.4c-0.9,0.9-1.5,2-1.7,3.4h10.9c-0.2-1.4-0.8-2.5-1.7-3.4C398.6,145.4,397.3,144.9,395.9,144.9z"/>
	<path class="st1" d="M410,159h-2.4v-22.4h2.4V159z"/>
	<path class="st1" d="M427.6,156.4c-1.3,1.9-3.2,2.8-5.7,2.8c-2.3,0-4.2-0.8-5.6-2.4c-1.4-1.6-2.1-3.5-2.1-5.9s0.7-4.3,2.1-5.9
		c1.5-1.6,3.4-2.4,5.8-2.4c2.4,0,4.3,0.9,5.6,2.8V143h2.4v16h-2.4V156.4z M422.2,157.1c1.7,0,3.1-0.6,4.1-1.8c1-1.1,1.4-2.6,1.4-4.3
		s-0.5-3.2-1.4-4.3c-1-1.2-2.4-1.8-4.1-1.8c-1.7,0-3.1,0.6-4.2,1.8c-1,1.1-1.5,2.6-1.5,4.3s0.5,3.2,1.5,4.3
		C419.1,156.5,420.5,157.1,422.2,157.1z"/>
	<path class="st1" d="M437.4,143v2.5c0.6-0.8,1.3-1.4,2.1-2s1.8-0.8,2.8-0.8c1.1,0,2,0.1,2.8,0.4c0.8,0.3,1.4,0.7,2,1.3
		c1.3,1.3,2,3,2,5.2v9.3h-2.4v-9.2c0-1.5-0.4-2.6-1.2-3.5s-1.9-1.3-3.2-1.3c-1.3,0-2.5,0.4-3.4,1.3c-0.9,0.9-1.4,2.1-1.4,3.5v9.2
		H435v-16H437.4z"/>
	<path class="st1" d="M466.5,145.6V143h2.4v15.5c0,2.3-0.7,4.1-2,5.3c-1.3,1.2-3.1,1.8-5.3,1.8c-2.2,0-4-0.4-5.2-1.3
		c-1.2-0.9-2.1-2-2.5-3.4h2.7c0.7,1.7,2.2,2.5,4.7,2.5c1.9,0,3.2-0.4,4-1.3c0.8-0.9,1.2-2.1,1.2-3.8v-2.2c-1.3,1.9-3.2,2.8-5.7,2.8
		c-2.3,0-4.2-0.8-5.6-2.4c-1.4-1.5-2.1-3.5-2.1-5.8s0.7-4.2,2.1-5.8c1.5-1.6,3.4-2.4,5.8-2.4S465.2,143.7,466.5,145.6z M461.1,156.8
		c0.9,0,1.7-0.2,2.3-0.5c0.7-0.3,1.3-0.7,1.8-1.3c1-1.1,1.4-2.5,1.4-4.2s-0.5-3.1-1.4-4.2c-1-1.2-2.4-1.7-4.1-1.7
		c-1.7,0-3.1,0.6-4.2,1.7c-1,1.1-1.5,2.5-1.5,4.2s0.5,3.1,1.5,4.2C458,156.2,459.4,156.8,461.1,156.8z"/>
	<path class="st1" d="M486.5,156.4c-1.3,1.9-3.2,2.8-5.7,2.8c-2.3,0-4.2-0.8-5.6-2.4c-1.4-1.6-2.1-3.5-2.1-5.9s0.7-4.3,2.1-5.9
		c1.5-1.6,3.4-2.4,5.8-2.4c2.4,0,4.3,0.9,5.6,2.8V143h2.4v16h-2.4V156.4z M481.1,157.1c1.7,0,3.1-0.6,4.1-1.8c1-1.1,1.4-2.6,1.4-4.3
		s-0.5-3.2-1.4-4.3c-1-1.2-2.4-1.8-4.1-1.8c-1.7,0-3.1,0.6-4.2,1.8c-1,1.1-1.5,2.6-1.5,4.3s0.5,3.2,1.5,4.3
		C478,156.5,479.3,157.1,481.1,157.1z"/>
	<path class="st1" d="M496.3,143v2.5c0.6-0.8,1.3-1.4,2.1-2s1.8-0.8,2.8-0.8c1.1,0,2,0.1,2.8,0.4c0.8,0.3,1.4,0.7,2,1.3
		c1.3,1.3,2,3,2,5.2v9.3h-2.4v-9.2c0-1.5-0.4-2.6-1.2-3.5s-1.9-1.3-3.2-1.3c-1.3,0-2.5,0.4-3.4,1.3c-0.9,0.9-1.4,2.1-1.4,3.5v9.2
		h-2.4v-16H496.3z"/>
	<path class="st1" d="M525.4,156.4c-1.3,1.9-3.2,2.8-5.7,2.8c-2.3,0-4.2-0.8-5.6-2.4c-1.4-1.6-2.1-3.5-2.1-5.9s0.7-4.3,2.1-5.9
		c1.5-1.6,3.4-2.4,5.8-2.4c2.4,0,4.3,0.9,5.6,2.8V143h2.4v16h-2.4V156.4z M520,157.1c1.7,0,3.1-0.6,4.1-1.8c1-1.1,1.4-2.6,1.4-4.3
		s-0.5-3.2-1.4-4.3c-1-1.2-2.4-1.8-4.1-1.8c-1.7,0-3.1,0.6-4.2,1.8c-1,1.1-1.5,2.6-1.5,4.3s0.5,3.2,1.5,4.3
		C516.9,156.5,518.3,157.1,520,157.1z"/>
</g>
<g id="XMLID_6_">
	<path class="st1" d="M37.4,151.6c0.9,1,1.9,1.7,3,2.1c1.1,0.4,2.3,0.5,3.5,0.5c1.2,0,2.4-0.5,3.4-1.6c1-1.1,1.9-2.5,2.6-4.2
		c0.7-1.7,1.3-3.7,1.9-6c0.5-2.2,1.1-4.5,1.7-6.8c0.6-2.3,1.2-4.6,2-6.8c0.7-2.2,1.7-4.2,2.8-6c2.5-3.9,5.8-5.8,10.1-5.8
		c5.1,0,9,1.9,11.6,5.7c2.7,3.8,4,9.1,4,15.8c0,7.6-1.6,13.4-4.8,17.4c-2.8,3.6-6.9,5.6-12.1,6.1v-6.4c3.7-0.2,6.6-2,8.5-5.4
		c1.7-3,2.5-6.9,2.5-11.7c0-10.2-3.2-15.3-9.6-15.3c-2.2,0-3.9,0.9-5.2,2.7c-1.3,1.8-2.3,4.1-3.1,6.9c-0.8,2.8-1.6,5.7-2.3,8.9
		c-0.7,3.2-1.6,6.2-2.7,8.9c-1.1,2.8-2.6,5.1-4.4,6.9c-1.8,1.8-4.3,2.7-7.4,2.7c-4.4,0-8-1.7-10.8-5.1c-2.8-3.4-4.2-8.5-4.2-15.3
		c0-6.9,1.6-12.2,4.8-16c2.8-3.4,6.4-5.3,10.7-5.5v6.3c-4.5,0.5-7.5,3.4-8.9,8.7c-0.5,1.9-0.8,4.2-0.8,6.9c0,2.8,0.3,5.1,0.9,7
		C35.7,149.1,36.5,150.6,37.4,151.6z"/>
	<path class="st1" d="M29.1,99h48.4V69.4h5.9v35.8H29.1V99z"/>
	<path class="st1" d="M83.4,53v6.2H29.1v-26c0-5.5,1.5-9.9,4.6-13.3c3-3.3,7.1-5,12.4-5c6.8,0,11.4,2.8,13.9,8.4
		c0.7,1.6,1.2,3.1,1.6,4.7l21.9-14.3V21L62.5,34.1V53H83.4z M56.7,53V34.2c0-5.8-1.8-9.8-5.4-12C49.9,21.4,48.2,21,46,21
		c-3.4,0-6.2,1.2-8.2,3.5c-2,2.4-3,5.5-3,9.3V53H56.7z"/>
</g>
</svg>
